<?xml version="1.0" encoding="UTF-8"?> <svg xmlns="http://www.w3.org/2000/svg" viewBox="0 0 329.62 329.61"> <defs> <style>.cls-1{fill:#fff;}.cls-1,.cls-2,.cls-3{stroke:#1d1d1b;stroke-miterlimit:10;stroke-width:0.25px;}.cls-2{fill:#1d1d1b;}.cls-3{fill:#e52421;}</style> </defs> <title>Ресурс 1</title> <g id="Слой_2" data-name="Слой 2"> <g id="Layer_1" data-name="Layer 1"> <path class="cls-1" d="M329.47,124.64A169.6,169.6,0,0,0,204.83.14s-25.92,39.92-40.08,39.92S124.88.14,124.88.14A169.46,169.46,0,0,0,.14,124.64s40,25.82,40,39.91S.14,204.5.14,204.5a169.38,169.38,0,0,0,126.71,125s26.22-40.39,40.53-40.39c13.87,0,39.53,39.4,39.53,39.4a169.61,169.61,0,0,0,122.56-124s-40-25.79-40-39.95,40-39.91,40-39.91"></path> <path class="cls-2" d="M239.89,142.83,219,121.94l-55.88,55.89L147.27,162,274.16,35.09a169.54,169.54,0,0,0-24.52-17.26L118.49,149l-16.76,16.75L137,201.06,247.77,311.79a170.1,170.1,0,0,0,28.86-20.45L184,198.71Z"></path> <path class="cls-3" d="M118.37,149a39.11,39.11,0,1,0,18.56,52.07l-35.31-35.32Z"></path> </g> </g> </svg> 